<svg width="1920" height="1080" viewBox="0 0 1920 1080" fill="none" xmlns="http://www.w3.org/2000/svg">
<g clip-path="url(#clip0_201_56)">
<rect width="1920" height="1080" fill="white"/>
<path d="M0 2H1920V1082H0V2Z" fill="#F8F6F5"/>
<rect width="1920" height="1080" fill="#F8F6F5"/>
<path d="M1349.32 351.468C1331.69 351.475 1324.12 378.299 1306.87 382.111C1299.16 383.814 1291.3 380.425 1283.43 380.278C1275.55 380.131 1266.14 386.138 1267.8 394.226L1417.89 391.848C1402.37 390.155 1387.86 382.992 1376.72 371.526C1368.59 363.024 1360.79 351.463 1349.32 351.468Z" fill="#F0F0F0"/>
<path d="M1693.57 632.902C1671.64 632.899 1650.42 624.724 1633.68 609.83C1616.95 594.936 1605.78 574.287 1602.17 551.556L1602.14 551.368L1602.25 551.222C1608.18 543.762 1612.97 535.382 1616.46 526.38C1612.31 531.966 1607.3 536.781 1601.64 540.624L1601.06 541.031L1601.02 540.298C1600.95 538.685 1600.91 537.082 1600.91 535.535C1600.86 518.978 1604.85 502.684 1612.5 488.21C1620.15 473.736 1631.2 461.566 1644.61 452.862C1621.15 427.284 1608.08 393.128 1608.14 357.607C1608.14 281.73 1666.9 220 1739.12 220C1766.66 219.959 1793.5 229.053 1815.83 245.986C1838.16 262.919 1854.83 286.826 1863.47 314.3L1863.59 314.67L1863.24 314.816C1854.33 318.61 1846.12 320.433 1838.27 320.344C1847.22 323.006 1856.5 324.186 1865.79 323.841L1866.11 323.83L1866.19 324.156C1868.79 335.097 1870.1 346.331 1870.1 357.607C1870.1 358.014 1870.09 358.421 1870.09 358.827C1870.07 367.595 1871.8 376.27 1875.18 384.287C1878.56 392.303 1883.51 399.482 1889.7 405.354C1899.6 414.817 1907.43 426.422 1912.65 439.369C1917.88 452.316 1920.37 466.298 1919.96 480.354C1919.55 494.409 1916.24 508.205 1910.27 520.791C1904.3 533.376 1895.81 544.454 1885.38 553.261L1885.19 553.422L1884.97 553.316C1871.27 546.784 1861.73 539.494 1855.23 530.542C1859.62 541.814 1866.03 552.097 1874.1 560.838L1874.45 561.219L1874.02 561.487C1860.17 569.963 1844.47 574.524 1828.45 574.724C1812.42 574.924 1796.62 570.758 1782.59 562.63C1776.95 582.868 1765.23 600.647 1749.19 613.312C1733.15 625.977 1713.63 632.849 1693.57 632.902V632.902Z" fill="#FED600"/>
<path d="M1660.56 787.994C1660.15 787.994 1659.76 787.84 1659.45 787.561C1659.15 787.282 1658.95 786.896 1658.89 786.475C1658.82 785.946 1651.81 732.852 1658.11 662.288C1663.92 597.121 1682.58 503.256 1738.48 426.167C1738.61 425.982 1738.78 425.827 1738.97 425.71C1739.16 425.593 1739.37 425.516 1739.59 425.485C1739.81 425.454 1740.03 425.468 1740.24 425.528C1740.46 425.587 1740.66 425.69 1740.84 425.831C1741.01 425.972 1741.16 426.148 1741.27 426.349C1741.38 426.55 1741.45 426.772 1741.48 427.002C1741.51 427.233 1741.5 427.467 1741.44 427.691C1741.39 427.916 1741.29 428.127 1741.15 428.312C1685.74 504.735 1667.23 597.911 1661.46 662.618C1655.2 732.772 1662.15 785.452 1662.23 785.976C1662.26 786.227 1662.24 786.483 1662.17 786.726C1662.1 786.969 1661.99 787.194 1661.83 787.385C1661.67 787.576 1661.48 787.73 1661.26 787.835C1661.04 787.94 1660.8 787.994 1660.56 787.994L1660.56 787.994Z" fill="#3F3D56"/>
<path d="M1688.5 528.101C1688.14 528.101 1687.8 527.983 1687.51 527.763C1687.22 527.544 1687.01 527.234 1686.9 526.879C1686.79 526.524 1686.79 526.141 1686.9 525.786C1687.01 525.43 1687.22 525.12 1687.51 524.901C1687.71 524.746 1708.16 509.262 1738.73 497.5C1766.99 486.627 1809.97 476.771 1854.21 491.567C1854.42 491.637 1854.61 491.75 1854.78 491.9C1854.95 492.05 1855.09 492.233 1855.19 492.44C1855.3 492.646 1855.36 492.872 1855.38 493.103C1855.39 493.335 1855.37 493.568 1855.3 493.79C1855.24 494.011 1855.13 494.216 1854.99 494.394C1854.84 494.572 1854.67 494.718 1854.47 494.825C1854.27 494.931 1854.06 494.996 1853.84 495.016C1853.62 495.035 1853.4 495.009 1853.19 494.938C1809.85 480.446 1767.66 490.139 1739.89 500.822C1709.75 512.417 1689.69 527.611 1689.49 527.763C1689.2 527.982 1688.85 528.101 1688.5 528.101Z" fill="#3F3D56"/>
<path d="M1348.92 739.784L1354.61 741.655L1392.78 613.479C1391.22 613.061 1389.56 613.288 1388.15 614.112C1386.75 614.936 1385.69 616.295 1385.21 617.91L1348.92 739.784Z" fill="#3F3D56"/>
<path d="M1474.37 572.586H1449.21V494.861H1474.37C1479.18 494.867 1483.8 496.879 1487.2 500.456C1490.61 504.034 1492.52 508.884 1492.53 513.943V553.505C1492.52 558.564 1490.61 563.414 1487.2 566.991C1483.8 570.569 1479.18 572.581 1474.37 572.586V572.586Z" fill="#2F2E41"/>
<path d="M1470.87 530.948C1470.03 530.947 1469.22 530.596 1468.63 529.971C1468.03 529.347 1467.7 528.5 1467.7 527.617V498.748H1474.04V527.617C1474.04 528.5 1473.7 529.347 1473.11 529.971C1472.51 530.596 1471.71 530.947 1470.87 530.948V530.948Z" fill="#3F3D56"/>
<path d="M1478.49 566.479H1460.08C1459.01 566.478 1458 566.035 1457.25 565.246C1456.5 564.458 1456.07 563.389 1456.07 562.274V550.699C1456.07 549.584 1456.5 548.515 1457.25 547.726C1458 546.938 1459.01 546.494 1460.08 546.493H1478.49C1479.55 546.494 1480.57 546.938 1481.32 547.726C1482.07 548.515 1482.49 549.584 1482.49 550.699V562.274C1482.49 563.389 1482.07 564.458 1481.32 565.246C1480.57 566.035 1479.55 566.478 1478.49 566.479V566.479Z" fill="#3F3D56"/>
<path d="M1424.8 486.774C1424.37 486.774 1423.95 486.617 1423.61 486.329C1423.41 486.152 1423.24 485.931 1423.11 485.681C1422.99 485.431 1422.92 485.157 1422.9 484.876C1422.31 474.916 1423.96 464.948 1427.71 455.781C1430.25 449.592 1433.18 445.605 1436.92 443.231C1441.91 440.066 1448.75 439.813 1455.7 442.538C1459.66 444.095 1462.53 446.13 1464.45 448.76C1467.01 452.269 1467.81 456.771 1468.3 461.113C1469.03 467.682 1469.2 474.308 1468.81 480.909C1468.8 481.251 1468.69 481.581 1468.51 481.866C1468.33 482.151 1468.09 482.381 1467.79 482.533C1467.48 482.695 1467.13 482.767 1466.78 482.743C1466.43 482.719 1466.09 482.599 1465.8 482.395C1465.68 482.314 1465.56 482.239 1465.44 482.171C1464.8 481.838 1464.1 481.669 1463.4 481.678C1462.69 481.688 1461.99 481.875 1461.37 482.225C1460.91 482.511 1460.48 482.838 1460.07 483.202L1457.58 485.327C1457.27 485.584 1456.89 485.735 1456.5 485.762C1456.11 485.788 1455.72 485.687 1455.38 485.473C1453.57 484.391 1451.54 483.763 1449.47 483.638C1446.7 483.53 1443.94 483.74 1441.22 484.266L1425.08 486.752C1424.99 486.767 1424.9 486.774 1424.8 486.774V486.774Z" fill="#2F2E41"/>
<path d="M1422.65 769.646H1414.03L1409.93 734.711H1422.65L1422.65 769.646Z" fill="#FFB6B6"/>
<path d="M1427.28 786.844H1421.17L1420.08 780.776L1417.28 786.844H1401.06C1400.28 786.844 1399.52 786.582 1398.9 786.098C1398.27 785.614 1397.81 784.932 1397.58 784.152C1397.35 783.372 1397.36 782.535 1397.61 781.762C1397.86 780.99 1398.35 780.323 1398.99 779.859L1411.94 770.458V764.323L1425.56 765.178L1427.28 786.844Z" fill="#2F2E41"/>
<path d="M1521.84 761.898L1513.89 765.408L1497.23 734.874L1508.95 729.694L1521.84 761.898Z" fill="#FFB6B6"/>
<path d="M1532.45 775.862L1526.82 778.353L1523.57 773.205L1523.23 779.937L1508.28 786.544C1507.56 786.861 1506.77 786.928 1506.01 786.737C1505.26 786.546 1504.58 786.106 1504.08 785.481C1503.58 784.856 1503.28 784.079 1503.23 783.264C1503.18 782.449 1503.38 781.638 1503.79 780.949L1512.27 767.007L1510 761.352L1522.88 756.59L1532.45 775.862Z" fill="#2F2E41"/>
<path d="M1418.62 531.719L1416.15 566.491L1399.77 618.419L1393.19 614.401L1402.11 561.589L1405.15 531.123L1418.62 531.719Z" fill="#FFB6B6"/>
<path d="M1395.95 625.993C1399.76 625.993 1402.84 622.749 1402.84 618.748C1402.84 614.747 1399.76 611.503 1395.95 611.503C1392.14 611.503 1389.05 614.747 1389.05 618.748C1389.05 622.749 1392.14 625.993 1395.95 625.993Z" fill="#FFB6B6"/>
<path d="M1460.65 571.767V581.358C1460.65 581.358 1474.78 607.521 1469.03 618.748L1490.24 679.719C1490.24 679.719 1519 709.946 1516.54 731.536L1518.18 738.445L1499.28 747.081L1495.17 741.036L1463.12 683.174L1436 630.493L1431.07 692.673C1431.07 692.673 1434.35 741.036 1425.31 746.218L1424.49 753.99H1405.31V746.602C1405.31 746.602 1398.19 720.309 1402.3 700.446L1400.66 616.675C1400.66 616.675 1408.05 581.267 1417.09 575.221L1420.38 566.585L1460.65 571.767Z" fill="#2F2E41"/>
<path d="M1475.75 505.282L1457.83 496.468L1452.66 486.999L1435.27 488.035L1430.01 497.06L1414.54 500.355L1416.81 559.136C1415.8 560.98 1415.44 563.14 1415.79 565.236C1416.33 568.92 1419.09 566.022 1416.33 568.92C1413.58 571.818 1411.5 570.361 1412.88 572.901C1414.27 575.44 1410.86 579.399 1410.86 579.399C1410.86 579.399 1454.89 602.963 1467.33 572.901C1467.33 572.901 1469.78 564.107 1465.63 545.685C1461.49 527.262 1475.75 505.282 1475.75 505.282Z" fill="#E4E4E4"/>
<path d="M1419.62 504.098L1414.54 500.355C1414.54 500.355 1407.5 503.39 1407.26 509.53C1407.03 515.67 1402.98 534.045 1402.98 534.045L1419.04 543.118L1419.62 504.098Z" fill="#E4E4E4"/>
<path d="M1479.98 534.617L1477.51 569.388L1450.1 612.624L1443.52 608.605L1463.47 564.487L1466.51 534.021L1479.98 534.617Z" fill="#FFB6B6"/>
<path d="M1467.37 507.247L1475.75 505.282C1475.75 505.282 1480.8 506.976 1481.49 514.946C1482.18 522.915 1482.75 536.785 1482.75 536.785L1465.17 550.374L1460.8 530.884L1467.37 507.247Z" fill="#E4E4E4"/>
<path d="M1445.59 620.197C1449.39 620.197 1452.48 616.953 1452.48 612.952C1452.48 608.951 1449.39 605.707 1445.59 605.707C1441.78 605.707 1438.69 608.951 1438.69 612.952C1438.69 616.953 1441.78 620.197 1445.59 620.197Z" fill="#FFB6B6"/>
<path d="M1442.4 483.895C1451.27 483.895 1458.46 476.337 1458.46 467.015C1458.46 457.692 1451.27 450.134 1442.4 450.134C1433.53 450.134 1426.33 457.692 1426.33 467.015C1426.33 476.337 1433.53 483.895 1442.4 483.895Z" fill="#FFB7B7"/>
<path d="M1429.31 464.47H1429.31C1427.27 464.469 1425.22 464.466 1423.17 464.461C1422.92 464.46 1422.68 464.408 1422.45 464.307C1422.23 464.206 1422.03 464.059 1421.86 463.874C1421.69 463.694 1421.56 463.479 1421.47 463.244C1421.39 463.009 1421.35 462.758 1421.35 462.506C1421.5 458.929 1422.48 455.443 1424.19 452.347C1425.9 449.251 1428.3 446.635 1431.18 444.724V444.724C1434.21 442.782 1437.67 441.7 1441.21 441.582C1444.76 441.464 1448.28 442.315 1451.42 444.052C1454.56 445.788 1457.22 448.351 1459.13 451.49C1461.05 454.629 1462.16 458.236 1462.35 461.96C1462.36 462.211 1462.33 462.463 1462.25 462.701C1462.17 462.938 1462.04 463.157 1461.88 463.343C1461.72 463.53 1461.53 463.681 1461.31 463.788C1461.09 463.895 1460.86 463.955 1460.62 463.965C1453.51 464.281 1445.62 464.435 1435.05 464.463H1435.04C1434.68 464.465 1434.33 464.352 1434.03 464.142C1433.73 463.931 1433.5 463.631 1433.37 463.28L1433.2 462.843C1433.11 462.612 1432.95 462.418 1432.75 462.287C1432.55 462.156 1432.31 462.096 1432.07 462.115C1431.84 462.134 1431.61 462.231 1431.43 462.392C1431.25 462.553 1431.13 462.771 1431.07 463.013C1430.98 463.428 1430.75 463.798 1430.43 464.063C1430.11 464.327 1429.72 464.471 1429.31 464.47V464.47Z" fill="#2F2E41"/>
<path d="M1465.27 549.601C1460.95 545.332 1459.1 539.137 1459.07 533.02C1459.03 526.034 1461.44 519.398 1464.55 513.323C1466.43 509.649 1468.58 506.133 1470.72 502.626C1471.45 501.446 1469.66 500.355 1468.94 501.529C1461.68 513.396 1453.68 527.453 1458.36 542.038C1459.44 545.495 1461.31 548.621 1463.81 551.138C1464.78 552.096 1466.24 550.562 1465.27 549.601H1465.27Z" fill="#3F3D56"/>
<path d="M1349.03 679.296C1345.47 678.117 1341.67 678.017 1338.06 679.007C1338.05 679.011 1338.04 679.009 1338.04 679.014C1335.24 679.778 1332.63 681.166 1330.39 683.085C1330.26 683.195 1330.14 683.307 1330.01 683.42C1327.17 685.978 1325.08 689.325 1323.97 693.077L1308.62 744.616C1307.48 748.431 1307.4 752.51 1308.39 756.37C1308.45 756.587 1308.51 756.803 1308.57 757.02C1309.32 759.577 1310.52 761.964 1312.11 764.052C1312.12 764.063 1312.13 764.075 1312.13 764.089C1314.61 767.327 1317.95 769.715 1321.73 770.951L1350.68 780.47L1377.97 688.815L1349.03 679.296Z" fill="#FED600"/>
<path d="M1394.67 614.103L1357.39 739.289C1357.27 739.682 1357.23 740.095 1357.27 740.505C1357.3 740.915 1357.41 741.314 1357.59 741.678C1357.78 742.043 1358.02 742.366 1358.32 742.63C1358.62 742.894 1358.97 743.093 1359.34 743.216C1359.72 743.339 1360.11 743.383 1360.5 743.346C1360.89 743.31 1361.27 743.192 1361.62 743.001C1361.96 742.811 1362.27 742.55 1362.52 742.234C1362.77 741.918 1362.96 741.553 1363.08 741.16L1398.48 622.274C1398.96 620.658 1398.84 618.911 1398.13 617.391C1397.42 615.871 1396.18 614.695 1394.67 614.103Z" fill="#3F3D56"/>
<path d="M1348.18 787.337C1351.12 787.337 1353.51 784.826 1353.51 781.728C1353.51 778.631 1351.12 776.12 1348.18 776.12C1345.23 776.12 1342.84 778.631 1342.84 781.728C1342.84 784.826 1345.23 787.337 1348.18 787.337Z" fill="#3F3D56"/>
<path d="M1313.41 775.906C1316.36 775.906 1318.75 773.394 1318.75 770.297C1318.75 767.199 1316.36 764.688 1313.41 764.688C1310.47 764.688 1308.08 767.199 1308.08 770.297C1308.08 773.394 1310.47 775.906 1313.41 775.906Z" fill="#3F3D56"/>
<path d="M1338.06 679.007C1332.53 697.22 1318.05 744.845 1312.13 764.089C1312.13 764.075 1312.12 764.063 1312.11 764.052C1310.52 761.964 1309.32 759.577 1308.57 757.02C1308.51 756.803 1308.45 756.587 1308.39 756.37C1314.74 735.457 1325.37 700.188 1330.01 683.42C1330.14 683.307 1330.26 683.195 1330.39 683.085C1332.63 681.166 1335.24 679.778 1338.04 679.014C1338.04 679.009 1338.05 679.011 1338.06 679.007Z" fill="#3F3D56"/>
<path d="M1931.77 788H1262.23C1261.9 787.999 1261.59 787.894 1261.36 787.706C1261.13 787.519 1261 787.265 1261 787C1261 786.735 1261.13 786.481 1261.36 786.294C1261.59 786.106 1261.9 786.001 1262.23 786H1931.77C1932.1 786.001 1932.41 786.106 1932.64 786.294C1932.87 786.481 1933 786.735 1933 787C1933 787.265 1932.87 787.519 1932.64 787.706C1932.41 787.894 1932.1 787.999 1931.77 788V788Z" fill="#3F3D56"/>
<path d="M1509.67 268.404C1501.54 259.903 1493.75 248.341 1482.27 248.346C1464.64 248.354 1457.07 275.178 1439.82 278.99C1432.11 280.692 1424.25 277.303 1416.38 277.156C1408.51 277.01 1399.09 283.017 1400.75 291.104L1550.84 288.726C1535.33 287.034 1520.82 279.871 1509.67 268.404V268.404Z" fill="#F0F0F0"/>
<path d="M1843.94 232.932C1826.31 232.94 1818.74 259.764 1801.48 263.576C1793.78 265.278 1785.92 261.889 1778.05 261.742C1770.17 261.596 1760.76 267.603 1762.42 275.69L1912.51 273.312C1896.99 271.62 1882.48 264.457 1871.34 252.99C1863.2 244.489 1855.41 232.927 1843.94 232.932Z" fill="#F0F0F0"/>
<g clip-path="url(#clip1_201_56)">
<path d="M510.686 786.552H157.097V579.066L155.472 578.021L212.867 522.119C241.878 493.763 280.75 477.754 321.316 477.455L426.825 476.491L426.977 476.671L510.932 576.549L510.684 579.314L510.686 786.552Z" fill="#F2F2F2"/>
<path d="M435.164 515.642H223.692V517.642H435.164V515.642Z" fill="white"/>
<path d="M414.164 536.642H202.692V538.642H414.164V536.642Z" fill="white"/>
<path d="M537.09 674.131H498.65V708.108H537.09V674.131Z" fill="white"/>
<path d="M537.09 615.323H498.65V648.76H537.09V615.323Z" fill="white"/>
<path d="M487.654 479.855H453.184V599.155H487.654V479.855Z" fill="#F2F2F2"/>
<path d="M510.686 786.551H321.462V649.052C321.472 617.257 332.806 586.504 353.432 562.307L426.681 476.431L510.686 576.436V786.551Z" fill="#E6E6E6"/>
<path d="M448.739 683.147H410.299V717.124H448.739V683.147Z" fill="white"/>
<path d="M448.739 624.337H410.299V657.775H448.739V624.337Z" fill="white"/>
<path d="M265.125 674.131H226.685V708.108H265.125V674.131Z" fill="white"/>
<path d="M265.125 615.323H226.685V648.76H265.125V615.323Z" fill="white"/>
<path d="M211.964 414.405H170.134V559.205H211.964V414.405Z" fill="#F2F2F2"/>
<path d="M239.814 786.55H-189.139V534.77L-191.047 533.541L-190.597 533.103L-112.248 456.788C-82.9735 428.173 -43.7483 412.018 -2.81296 411.717L138.081 410.43L138.233 410.61L240.105 531.801L239.812 535.113L239.814 786.55Z" fill="#F2F2F2"/>
<path d="M239.814 786.55H10.356V601.672C10.3645 574.786 19.9486 548.781 37.3904 528.319L137.959 410.414L239.814 531.667V786.55Z" fill="#E6E6E6"/>
<path d="M164.071 661.151H126.966V693.948H164.071V661.151Z" fill="white"/>
<path d="M164.071 604.151H126.966V636.949H164.071V604.151Z" fill="white"/>
<path d="M690.825 785.031H-237V787.316H690.825V785.031Z" fill="#3F3D56"/>
<path d="M424.822 430.333L435.341 421.919C427.169 421.019 423.811 425.474 422.441 429.002C416.057 426.351 409.106 429.825 409.106 429.825L430.153 437.466C429.091 434.629 427.243 432.155 424.825 430.331L424.822 430.333Z" fill="#3F3D56"/>
<path d="M234.727 365.531L245.246 357.117C237.074 356.217 233.716 360.672 232.346 364.2C225.962 361.549 219.011 365.023 219.011 365.023L240.058 372.664C238.995 369.828 237.146 367.354 234.727 365.531V365.531Z" fill="#3F3D56"/>
<path d="M499.488 381.197L510.007 372.783C501.835 371.883 498.477 376.339 497.107 379.867C490.723 377.216 483.772 380.69 483.772 380.69L504.819 388.33C503.757 385.494 501.909 383.02 499.491 381.196L499.488 381.197Z" fill="#3F3D56"/>
<path d="M52.3238 771.812C49.5267 771.811 46.779 772.549 44.3578 773.95C41.8993 771.727 38.8487 770.266 35.5761 769.744C32.3035 769.222 28.9497 769.66 25.9216 771.007C22.8935 772.354 20.3213 774.55 18.5171 777.33C16.713 780.11 15.7544 783.354 15.7578 786.668H68.2648C67.9785 782.635 66.175 778.86 63.2174 776.104C60.2598 773.348 56.3677 771.814 52.3248 771.812L52.3238 771.812Z" fill="#3F3D56"/>
<path d="M325.432 771.812C322.635 771.811 319.887 772.549 317.466 773.95C315.008 771.727 311.957 770.266 308.685 769.744C305.412 769.222 302.058 769.66 299.03 771.007C296.002 772.354 293.43 774.55 291.626 777.33C289.821 780.11 288.863 783.354 288.866 786.668H341.373C341.087 782.634 339.284 778.86 336.326 776.103C333.368 773.346 329.475 771.813 325.432 771.812V771.812Z" fill="#3F3D56"/>
<path d="M190.902 760.349H116.316V762.755H127.948V785.612H130.354V762.755H175.66V785.612H178.066V762.755H190.901L190.902 760.349Z" fill="#3F3D56"/>
<path d="M191.049 753.151H116.463V755.557H191.049V753.151Z" fill="#3F3D56"/>
<path d="M191.049 747.136H116.463V749.542H191.049V747.136Z" fill="#3F3D56"/>
<path d="M636.818 749.787C652.9 749.787 665.936 723.187 665.936 690.374C665.936 657.562 652.9 630.961 636.818 630.961C620.737 630.961 607.7 657.562 607.7 690.374C607.7 723.187 620.737 749.787 636.818 749.787Z" fill="#E6E6E6"/>
<path d="M633.575 787.532C645.222 717.654 633.692 648.032 633.575 647.332L632.415 647.532C632.532 648.225 644.028 717.662 632.415 787.34L633.575 787.532Z" fill="#3F3D56"/>
<path d="M610.912 678.082L610.356 679.12L636.694 693.215L637.249 692.176L610.912 678.082Z" fill="#3F3D56"/>
<path d="M664.492 685.148L638.154 699.242L638.71 700.28L665.047 686.186L664.492 685.148Z" fill="#3F3D56"/>
<path d="M601.717 761.612C601.452 761.738 601.161 761.796 600.868 761.781C600.575 761.767 600.291 761.679 600.04 761.527C599.912 761.449 599.808 761.657 599.94 761.735C600.218 761.902 600.532 761.999 600.855 762.016C601.179 762.034 601.501 761.972 601.795 761.836C601.824 761.825 601.847 761.804 601.861 761.776C601.875 761.749 601.878 761.718 601.869 761.688C601.865 761.674 601.857 761.66 601.848 761.648C601.838 761.636 601.826 761.627 601.812 761.619C601.799 761.612 601.784 761.608 601.769 761.606C601.753 761.605 601.738 761.606 601.723 761.61L601.717 761.612Z" fill="white"/>
<path d="M564.924 739.576C565.269 739.38 565.567 739.111 565.796 738.787C566.026 738.464 566.182 738.093 566.253 737.703C566.324 737.313 566.309 736.911 566.208 736.528C566.107 736.144 565.924 735.787 565.67 735.482L568.826 710.959L562.926 711.207L561.681 735.233C561.196 735.693 560.897 736.315 560.84 736.981C560.784 737.647 560.973 738.311 561.373 738.846C561.773 739.381 562.355 739.752 563.01 739.886C563.664 740.021 564.346 739.911 564.924 739.576H564.924Z" fill="#FFB6B6"/>
<path d="M592.372 710.956L593.13 723.494L588.013 737.008L585.568 733.393L587.898 720.246L587.252 711.835L592.372 710.956Z" fill="#FFB6B6"/>
<path d="M585.046 749.614L585.674 781.844L582.919 782.271L576.964 749.284L585.046 749.614Z" fill="#FFB6B6"/>
<path d="M567.178 751.172L571.49 783.118H574.278L575.114 749.608L567.178 751.172Z" fill="#FFB6B6"/>
<path d="M575.292 694.567C578.458 694.567 581.025 692.001 581.025 688.834C581.025 685.668 578.458 683.101 575.292 683.101C572.126 683.101 569.559 685.668 569.559 688.834C569.559 692.001 572.126 694.567 575.292 694.567Z" fill="#FFB6B6"/>
<path d="M585.747 731.636L588.153 737.261L585.747 744.83V752.664L576.534 752.719L576.334 743.085L575.094 752.719H565.713L563.977 733.409L566.468 728.839L585.747 731.636Z" fill="#2F2E41"/>
<path d="M573.451 696.444L572.773 697.7C572.773 697.7 566.927 698.839 563.973 702.057L567.938 710.157L564.266 733.602L585.914 732.159L586.682 714.108L589.94 701.483C589.94 701.483 584.293 697.61 581.856 698.017L581.003 696.449L573.451 696.444Z" fill="#FED600"/>
<path d="M569.535 702.901L563.971 702.058C563.971 702.058 562.448 710.993 562.46 713.033L569.176 714.104L569.535 702.901Z" fill="#FED600"/>
<path d="M587.281 702.047L589.94 701.477C589.94 701.477 590.966 704.732 592.658 712.398L585.746 714.81L587.281 702.047Z" fill="#FED600"/>
<path d="M574.82 785.214H564.807V785.087C564.807 784.053 565.218 783.061 565.949 782.33C566.681 781.598 567.673 781.188 568.707 781.188H574.82V785.214Z" fill="#2F2E41"/>
<path d="M586.885 783.682L576.991 785.214L576.972 785.089C576.815 784.068 577.069 783.026 577.68 782.193C578.29 781.359 579.206 780.801 580.227 780.642V780.642L586.27 779.706L586.885 783.682Z" fill="#2F2E41"/>
<path d="M577.54 691.164C577.102 691.009 576.651 690.892 576.192 690.813C575.438 690.641 574.777 690.188 574.342 689.548C573.907 688.907 573.731 688.126 573.849 687.36C573.912 687.178 573.941 686.985 573.933 686.791C573.873 686.365 573.374 686.091 572.896 685.991C572.41 685.942 571.928 685.862 571.452 685.751C571.122 685.634 570.829 685.43 570.604 685.161C570.379 684.891 570.232 684.566 570.176 684.219C570.105 683.546 570.277 682.87 570.66 682.311L570.833 682.745C571.089 682.56 571.286 682.303 571.397 682.007C571.585 682.03 571.764 682.098 571.919 682.207C572.073 682.315 572.199 682.461 572.283 682.629C572.56 682.772 572.6 682.185 572.907 682.099C573.04 682.084 573.174 682.113 573.289 682.181C573.951 682.344 574.647 682.309 575.289 682.081C576.44 681.842 577.628 681.842 578.778 682.081C579.534 682.206 580.245 682.526 580.84 683.008C581.257 683.419 581.584 683.911 581.801 684.453C582.439 685.703 582.708 687.108 582.579 688.504C582.404 689.657 581.861 690.723 581.032 691.542C580.59 691.987 579.149 693.542 578.359 693.273C577.367 692.939 578.71 691.704 577.54 691.164Z" fill="#2F2E41"/>
<path d="M504.406 737.344C504.651 737.197 504.86 736.998 505.019 736.761C505.179 736.524 505.285 736.255 505.329 735.973C505.373 735.691 505.355 735.403 505.276 735.129C505.197 734.854 505.059 734.601 504.871 734.385L507.41 708.909L503.171 709.19L501.997 734.276C501.656 734.616 501.451 735.069 501.421 735.549C501.392 736.03 501.54 736.504 501.837 736.883C502.134 737.261 502.56 737.517 503.034 737.602C503.508 737.688 503.996 737.596 504.407 737.344H504.406Z" fill="#FEB8B8"/>
<path d="M501.453 707.963L502.564 716.41L502.41 721.587L507.073 722.014L508.007 717.708L508.522 706.308C508.561 705.448 508.273 704.605 507.715 703.95C507.157 703.294 506.371 702.874 505.516 702.775C504.629 702.672 503.737 702.921 503.033 703.47C502.328 704.019 501.868 704.823 501.751 705.708L501.453 707.963Z" fill="#2F2E41"/>
<path d="M519.309 782.287H522.134L523.479 771.378H519.305L519.309 782.287Z" fill="#FEB8B8"/>
<path d="M518.588 785.03H527.708V784.915C527.708 783.974 527.334 783.071 526.668 782.406C526.003 781.74 525.1 781.366 524.159 781.365H518.589L518.588 785.03Z" fill="#2F2E41"/>
<path d="M495.955 782.287H498.783L500.129 771.378H495.955V782.287Z" fill="#FEB8B8"/>
<path d="M495.233 785.03H504.353V784.915C504.353 783.974 503.98 783.071 503.314 782.406C502.648 781.74 501.746 781.366 500.804 781.365H495.234L495.233 785.03Z" fill="#2F2E41"/>
<path d="M506.953 698.761C510.34 698.761 513.085 696.016 513.085 692.629C513.085 689.243 510.34 686.497 506.953 686.497C503.567 686.497 500.821 689.243 500.821 692.629C500.821 696.016 503.567 698.761 506.953 698.761Z" fill="#FEB8B8"/>
<path d="M507.746 701.25L503.491 701.737C502.456 703.204 501.785 704.896 501.534 706.674C501.282 708.452 501.456 710.264 502.043 711.961L505.254 721.25C505.254 721.25 500.797 730.186 500.797 738.482C500.797 746.778 492.308 776.393 492.308 776.393L504.257 777.638L509.471 746.091L516.656 777.511L524.856 776.177L520.339 734.977L517.354 721.417L517.228 714.815C517.228 714.815 518.497 709.853 515.321 706.677L511.443 701.276L507.746 701.25Z" fill="#2F2E41"/>
<path d="M514.101 690.439H505.087V686.511C507.065 685.725 509 685.057 510.17 686.511C511.212 686.511 512.211 686.925 512.947 687.662C513.684 688.399 514.098 689.398 514.098 690.439H514.101Z" fill="#2F2E41"/>
<path d="M504.596 685.818C499.209 685.818 497.701 692.57 497.701 696.379C497.701 698.503 498.662 699.263 500.171 699.52L500.704 696.677L501.953 699.643C502.377 699.643 502.823 699.637 503.284 699.628L503.707 698.756L504.651 699.612C508.432 699.618 511.489 700.169 511.489 696.379C511.486 692.571 510.164 685.818 504.596 685.818Z" fill="#2F2E41"/>
<path opacity="0.2" d="M512.558 723.114L512.786 713.223L513.386 708.832L514.88 713.182L512.558 723.114Z" fill="black"/>
<path d="M502.225 721.294H502.224C500.796 721.291 499.428 720.721 498.418 719.711C497.409 718.701 496.841 717.332 496.839 715.904V705.781C496.843 704.353 497.411 702.986 498.42 701.977C499.429 700.967 500.797 700.399 502.224 700.395C504.152 700.397 506 701.163 507.363 702.526C508.726 703.89 509.493 705.738 509.496 707.665V714.024C509.493 715.951 508.727 717.799 507.364 719.162C506.001 720.525 504.153 721.292 502.225 721.294V721.294Z" fill="#FED600"/>
<path d="M514.224 714.177C515.576 712.461 516.289 710.33 516.242 708.147C516.242 703.757 513.627 700.186 510.413 700.186C509.489 700.232 508.592 700.517 507.811 701.013C507.029 701.508 506.389 702.198 505.953 703.015L506.437 703.315C506.823 702.582 507.392 701.961 508.089 701.513C508.785 701.064 509.586 700.803 510.413 700.755C513.313 700.755 515.673 704.071 515.673 708.148C515.72 710.197 515.055 712.198 513.79 713.811L514.224 714.177Z" fill="#FED600"/>
<path d="M511.461 738.372C511.72 738.197 511.937 737.967 512.098 737.698C512.258 737.429 512.357 737.129 512.389 736.818C512.421 736.506 512.384 736.192 512.281 735.897C512.178 735.601 512.012 735.332 511.794 735.107L513.057 707.083L508.436 707.643L508.642 735.159C508.289 735.551 508.092 736.059 508.089 736.586C508.085 737.113 508.276 737.623 508.623 738.019C508.971 738.415 509.452 738.67 509.975 738.735C510.498 738.8 511.027 738.671 511.461 738.372V738.372Z" fill="#FEB8B8"/>
<path d="M506.483 706.405L508.201 715.581L508.34 721.254L513.466 721.444L514.232 716.678L514.118 704.178C514.11 703.235 513.744 702.33 513.094 701.646C512.445 700.962 511.56 700.55 510.618 700.492C509.642 700.432 508.681 700.759 507.943 701.401C507.205 702.043 506.749 702.95 506.673 703.925L506.483 706.405Z" fill="#2F2E41"/>
<path d="M464.009 760.349H389.423V762.755H401.055V785.612H403.461V762.755H448.767V785.612H451.173V762.755H464.008L464.009 760.349Z" fill="#3F3D56"/>
<path d="M464.156 753.151H389.57V755.557H464.156V753.151Z" fill="#3F3D56"/>
<path d="M464.156 747.136H389.57V749.542H464.156V747.136Z" fill="#3F3D56"/>
<path d="M179.155 733.55C182.092 733.55 184.473 731.169 184.473 728.232C184.473 725.295 182.092 722.914 179.155 722.914C176.218 722.914 173.837 725.295 173.837 728.232C173.837 731.169 176.218 733.55 179.155 733.55Z" fill="#A0616A"/>
<path d="M189.692 782.389H192.414L193.714 771.889H189.692V782.389Z" fill="#A0616A"/>
<path d="M188.998 781.501H194.359C195.265 781.501 196.134 781.861 196.775 782.502C197.416 783.143 197.776 784.011 197.776 784.917V785.028H188.998V781.501Z" fill="#2F2E41"/>
<path d="M179.156 776.808L176.95 778.408L169.75 770.66L173.005 768.305L179.156 776.808Z" fill="#A0616A"/>
<path d="M181.264 778.546L174.152 783.692L174.087 783.602C173.556 782.867 173.338 781.952 173.482 781.058C173.625 780.163 174.118 779.362 174.852 778.831L179.196 775.688L181.264 778.546Z" fill="#2F2E41"/>
<path d="M182.134 735.995C181.262 735.388 180.224 735.062 179.161 735.062C178.098 735.062 177.061 735.388 176.189 735.995L174.052 753.823H180.47L181.421 748.123L183.56 739.566L182.134 735.995Z" fill="#FED600"/>
<path d="M188.564 763.531L177.045 759.77L171.554 764.127L177.388 773.045L174.337 777.045L174.25 776.945C173.871 776.514 164.979 766.352 165.005 763.47C165.071 761.514 165.401 759.576 165.987 757.71L168.876 753.61L172.976 752.404L186.548 754.304H186.57L192.054 757.642C192.597 757.992 193.055 758.46 193.393 759.011C193.731 759.562 193.94 760.182 194.006 760.825C194.241 762.944 194.715 779.917 194.72 780.088V780.199H188.806L188.564 763.531Z" fill="#2F2E41"/>
<path d="M181.262 759.27C179.262 758.38 176.703 754.906 176.282 754.32C175.458 754.768 169.451 757.979 167.757 757.154C167.022 757.527 166.462 758.173 166.199 758.954L166.149 759.205L166.004 758.994C165.977 758.955 163.368 755.075 166.743 752.664C168.508 751.537 169.898 749.911 170.735 747.991L169.065 739.165L169.109 739.124C169.246 738.997 172.497 736.006 175.463 735.65L177.293 735.327L177.373 742.293V751.211C178.851 751.025 181.19 735.443 181.19 735.443L182.412 735.891C182.728 735.952 186.277 736.661 187.219 738.073L187.25 738.119L184.022 746.847L183.078 748.268V750.087L188.594 754.887L188.516 754.969C188.328 755.169 184.261 759.396 181.892 759.395C181.676 759.399 181.461 759.356 181.262 759.27V759.27Z" fill="#3F3D56"/>
<path d="M177.817 760.855C177.855 760.553 177.959 760.264 178.121 760.006C178.283 759.749 178.5 759.53 178.756 759.365C179.012 759.2 179.301 759.094 179.603 759.053C179.904 759.012 180.211 759.038 180.502 759.128L183.55 755.474L186.222 756.785L181.845 761.885C181.661 762.364 181.307 762.758 180.852 762.994C180.396 763.229 179.87 763.289 179.373 763.162C178.876 763.035 178.444 762.73 178.157 762.305C177.87 761.88 177.749 761.365 177.817 760.857V760.855Z" fill="#A0616A"/>
<path d="M179.971 757.757L184.753 751.302L183.569 744.902L185.491 737.696L185.539 737.675C186.062 737.448 186.647 737.407 187.197 737.561C187.34 737.62 187.469 737.709 187.577 737.82C187.684 737.932 187.767 738.064 187.821 738.209C188.297 739.398 189.444 751.509 189.492 752.047C189.393 753.195 189.15 754.326 188.768 755.413C188.291 756.366 183.944 761.175 183.76 761.38L183.684 761.464L179.971 757.757Z" fill="#3F3D56"/>
<path d="M183.724 726.863C181.954 729.089 178.924 728.681 176.493 727.863C176.634 729.646 176.15 731.421 175.124 732.885C175.437 731.622 174.117 731.371 173.346 730.901C173.046 730.525 173.296 729.965 173.174 729.501C171.79 727.879 170.874 726.655 172.65 724.751C173.69 723.359 174.938 721.622 176.919 721.987C178.487 720.158 181.055 720.634 182.808 721.913C183.596 722.497 184.313 723.17 184.944 723.92C184.742 724.908 184.367 725.851 183.835 726.706" fill="#2F2E41"/>
<path d="M179.659 762.409C179.621 762.108 179.517 761.818 179.355 761.56C179.192 761.303 178.976 761.084 178.72 760.919C178.464 760.754 178.175 760.648 177.873 760.607C177.571 760.566 177.264 760.592 176.974 760.682L173.926 757.028L171.254 758.339L175.631 763.439C175.815 763.918 176.168 764.312 176.624 764.548C177.079 764.783 177.606 764.843 178.102 764.716C178.599 764.589 179.032 764.284 179.319 763.859C179.606 763.434 179.727 762.919 179.659 762.41V762.409Z" fill="#A0616A"/>
<path d="M173.749 761.754C173.476 761.554 167.065 756.73 166.349 755.298C165.633 753.866 165.809 749.614 165.819 749.421C166.307 746.356 166.999 743.327 167.891 740.353C168.014 740.031 168.199 739.736 168.436 739.485C168.673 739.235 168.957 739.033 169.272 738.892C169.587 738.751 169.926 738.674 170.271 738.664C170.616 738.654 170.96 738.712 171.282 738.835C171.308 738.845 171.334 738.856 171.36 738.866L171.434 738.897L170.361 751.415L176.214 759.178L173.83 761.813L173.749 761.754Z" fill="#3F3D56"/>
<path d="M164.464 490.745L155.495 469.94L137.494 470.26L126.574 491.003L126.794 491.279H126.716V534.423H164.439V491.279L164.464 490.745Z" fill="#F2F2F2"/>
<path d="M444.829 542.822L437.581 527.615L423.034 527.849L414.209 543.011L414.388 543.213H414.324V574.748H444.809V543.213L444.829 542.822Z" fill="#F2F2F2"/>
<path d="M94.7402 460.854H-116.731V462.854H94.7402V460.854Z" fill="white"/>
<path d="M73.7402 481.854H-137.731V483.854H73.7402V481.854Z" fill="white"/>
<path d="M487.654 485.645H453.184V487.645H487.654V485.645Z" fill="white"/>
<path d="M487.654 506.645H453.184V508.645H487.654V506.645Z" fill="white"/>
<path d="M211.964 421.645H170.134V423.645H211.964V421.645Z" fill="white"/>
<path d="M211.964 442.645H170.134V444.645H211.964V442.645Z" fill="white"/>
</g>
<path d="M1960 785H3V788H1960V785Z" fill="#3F3D56"/>
</g>
<defs>
<clipPath id="clip0_201_56">
<rect width="1920" height="1080" fill="white"/>
</clipPath>
<clipPath id="clip1_201_56">
<rect width="927.825" height="430.531" fill="white" transform="translate(-237 357)"/>
</clipPath>
</defs>
</svg>
