<svg width="707" height="631" viewBox="0 0 707 631" fill="none" xmlns="http://www.w3.org/2000/svg">
<path d="M417.589 90.2664H594.999V148.446H588.28V163.662L573.047 148.446H417.589V90.2664Z" fill="#E6E6E6"/>
<path d="M590.072 95.9316H422.518V142.475H590.072V95.9316Z" fill="white"/>
<path d="M516.664 109.52H435.991V111.966H516.664V109.52Z" fill="#342A83"/>
<path d="M576.598 117.98H435.991V120.426H576.598V117.98Z" fill="#E6E6E6"/>
<path d="M576.46 126.441H435.991V128.887H576.46V126.441Z" fill="#E6E6E6"/>
<path d="M488.963 0H311.552V58.1795H318.272V73.3961L333.504 58.1795H488.963V0Z" fill="#E6E6E6"/>
<path d="M484.035 5.66577H316.48V52.2094H484.035V5.66577Z" fill="white"/>
<path d="M411.972 19.7019H331.298V22.1476H411.972V19.7019Z" fill="#342A83"/>
<path d="M471.905 28.1621H331.298V30.6078H471.905V28.1621Z" fill="#E6E6E6"/>
<path d="M471.767 36.6226H331.298V39.0682H471.767V36.6226Z" fill="#E6E6E6"/>
<path d="M466.837 171.678H248.985V243.12H257.237V261.804L275.942 243.12H466.837V171.678Z" fill="white"/>
<path d="M256.545 263.472V243.811H248.293V170.987H467.528V243.811H276.228L256.545 263.472ZM249.676 242.429H257.928V260.137L275.655 242.429H466.145V172.369H249.676L249.676 242.429Z" fill="#3F3D56"/>
<path d="M372.295 195.871H273.232V198.874H372.295V195.871Z" fill="#342A83"/>
<path d="M445.89 206.26H273.232V209.263H445.89V206.26Z" fill="#E6E6E6"/>
<path d="M445.721 216.649H273.232V219.652H445.721V216.649Z" fill="#E6E6E6"/>
<g clip-path="url(#clip0_215:65)">
<path d="M40.093 593.446C40.4125 605.387 42.4097 617.223 46.0259 628.605C46.106 628.87 46.195 629.13 46.2816 629.394H68.4199C68.3966 629.157 68.3726 628.893 68.3493 628.605C66.8733 611.609 75.306 509.397 85.4816 491.707C84.59 493.142 38.3765 539.44 40.093 593.446Z" fill="#B4B4B4"/>
<path d="M41.7546 628.605C41.9398 628.87 42.1322 629.134 42.3294 629.394H58.9381C58.8123 629.169 58.6664 628.905 58.4972 628.605C55.7537 623.646 47.6329 608.818 40.095 593.446C31.9975 576.926 24.5622 559.781 25.1884 553.575C24.9944 554.974 19.3886 597.641 41.7546 628.605Z" fill="#B4B4B4"/>
<path d="M310.959 611.13C311.122 617.197 312.136 623.21 313.973 628.993C314.014 629.128 314.059 629.26 314.103 629.394H325.351C325.339 629.274 325.327 629.139 325.315 628.993C324.565 620.358 328.85 568.428 334.019 559.44C333.566 560.169 310.087 583.692 310.959 611.13Z" fill="#B4B4B4"/>
<path d="M311.803 628.993C311.897 629.127 311.995 629.262 312.095 629.394H320.533C320.469 629.28 320.395 629.145 320.309 628.993C318.916 626.474 314.79 618.94 310.96 611.13C306.846 602.737 303.068 594.026 303.386 590.873C303.288 591.584 300.44 613.261 311.803 628.993Z" fill="#B4B4B4"/>
<path d="M244.371 265.273L215.741 285.67L233.556 287.581L258.369 266.55L244.371 265.273Z" fill="#3F3D56"/>
<path d="M132.36 613.527L149.58 613.526L157.772 547.002L132.357 547.003L132.36 613.527Z" fill="#9F616A"/>
<path d="M127.967 607.896L161.879 607.895H161.881C167.612 607.895 173.109 610.176 177.162 614.235C181.214 618.294 183.491 623.8 183.492 629.54V630.244L127.968 630.246L127.967 607.896Z" fill="#2F2E41"/>
<path d="M121.534 375.917C121.534 375.917 114.071 384.367 126.428 417.303L124.252 597.901L164.298 597.119L173.101 509.024L189.128 380.47L121.534 375.917Z" fill="#2F2E41"/>
<path d="M81.551 347.409C79.185 347.402 76.9146 346.473 75.2218 344.817C73.5289 343.161 72.5467 340.91 72.4838 338.541L70.6045 267.606L102.761 206.503C103.491 205.127 104.559 203.96 105.865 203.113C107.171 202.265 108.671 201.765 110.223 201.66L134.729 200.084L132.613 343.072L82.348 347.374C82.0813 347.398 81.8156 347.409 81.551 347.409Z" fill="#FED600"/>
<path d="M202.863 400.886L202.424 400.819C151.194 392.994 112.534 385.491 112.15 385.416L111.669 385.323L125.099 352.607C124.993 349.188 122.086 253.188 127.651 225.607C133.038 198.906 158.432 194.53 161.326 194.118L164.232 184.476L200.941 203.608L207.344 225.677L208.644 286.165L202.863 400.886Z" fill="#3F3D56"/>
<path d="M152.415 309.312C128.764 309.312 109.522 283.556 109.522 251.897C109.522 220.239 128.764 194.482 152.415 194.482C176.066 194.482 195.308 220.239 195.308 251.897C195.308 283.556 176.066 309.312 152.415 309.312ZM152.415 200.103C131.859 200.103 115.135 223.338 115.135 251.897C115.135 280.457 131.859 303.691 152.415 303.691C172.972 303.691 189.696 280.457 189.696 251.897C189.696 223.338 172.972 200.103 152.415 200.103Z" fill="#FED600"/>
<path d="M224.972 276.389C223.319 276.389 221.684 276.731 220.169 277.395C218.655 278.058 217.294 279.028 216.172 280.244H154.469L131.868 285.063L135.579 313.729L215.978 296.411C217.309 297.916 218.995 299.064 220.883 299.749C222.771 300.434 224.8 300.634 226.785 300.332C228.77 300.03 230.648 299.234 232.247 298.018C233.846 296.801 235.116 295.203 235.94 293.369C236.764 291.535 237.116 289.524 236.964 287.518C236.812 285.513 236.161 283.578 235.07 281.889C233.98 280.201 232.484 278.813 230.72 277.852C228.956 276.891 226.98 276.388 224.972 276.389Z" fill="#9F616A"/>
<path d="M220.442 180.413C232.055 168.782 232.055 149.924 220.442 138.292C208.829 126.661 190 126.661 178.387 138.292C166.774 149.924 166.774 168.782 178.387 180.413C190 192.045 208.829 192.045 220.442 180.413Z" fill="#9F616A"/>
<path d="M171.447 135.542L170.005 132.636L177.259 129.026C177.259 129.026 185.261 115.985 199.742 119.649C214.222 123.314 220.737 125.508 220.737 125.508L227.973 129.154L224.341 132.773L230.856 134.967L226.504 137.132L231.568 140.048L228.841 154.993C228.841 154.993 224.314 143.658 215.609 147.989C206.904 152.321 190.982 145.75 190.982 145.75L177.149 172.564C177.149 172.564 174.295 163.164 169.207 165.671C169.207 165.671 156.209 144.936 171.447 135.542Z" fill="#2F2E41"/>
<path d="M429.835 318.907L428.564 295.031L415.736 284.592L408.305 306.701L366.741 362.224C364.776 362.539 362.942 363.412 361.457 364.738C359.971 366.064 358.896 367.789 358.359 369.709C357.821 371.628 357.844 373.661 358.424 375.568C359.004 377.475 360.118 379.175 361.633 380.468C363.147 381.76 365 382.592 366.972 382.863C368.943 383.134 370.951 382.834 372.758 381.998C374.565 381.162 376.094 379.825 377.166 378.145C378.238 376.466 378.807 374.514 378.806 372.521C378.806 372.38 378.791 372.244 378.785 372.105L429.835 318.907Z" fill="#FFB7B7"/>
<path d="M454.537 619.824L444.708 619.823L440.032 581.851L454.538 581.852L454.537 619.824Z" fill="#FFB7B7"/>
<path d="M457.044 629.367L425.351 629.366V628.964C425.351 625.687 426.651 622.545 428.964 620.228C431.277 617.911 434.415 616.609 437.686 616.609H437.687L457.044 616.61L457.044 629.367Z" fill="#2F2E41"/>
<path d="M500.235 619.824L490.407 619.823L485.73 581.851L500.237 581.852L500.235 619.824Z" fill="#FFB7B7"/>
<path d="M502.742 629.367L471.049 629.366V628.964C471.05 625.687 472.349 622.545 474.663 620.228C476.976 617.911 480.114 616.609 483.385 616.609H483.386L502.743 616.61L502.742 629.367Z" fill="#2F2E41"/>
<path d="M489.846 219.164C494.008 201.954 497.533 182.544 489.685 166.694C484.24 155.696 464.096 151.993 452.548 155.955C441 159.917 432.651 170.666 428.979 182.386C425.307 194.106 425.734 206.735 427.334 218.919C448.572 218.51 469.81 218.102 489.846 219.164Z" fill="#2F2E41"/>
<path d="M465.886 216.119C477.888 209.548 482.299 194.477 475.738 182.457C469.177 170.436 454.13 166.018 442.128 172.589C430.127 179.16 425.716 194.232 432.277 206.252C438.838 218.273 453.885 222.69 465.886 216.119Z" fill="#FFB8B8"/>
<path d="M484.283 189.245C484.362 185.07 483.602 180.922 482.049 177.047C480.495 173.172 478.18 169.65 475.241 166.689C472.301 163.728 468.797 161.389 464.938 159.811C461.078 158.233 456.941 157.448 452.772 157.503C448.604 157.558 444.489 158.452 440.672 160.132C436.855 161.811 433.414 164.241 430.554 167.279C427.693 170.316 425.472 173.899 424.021 177.813C422.57 181.728 421.919 185.894 422.108 190.066C443.305 190.111 464.503 190.156 484.283 189.245Z" fill="#2F2E41"/>
<path d="M414.238 343.797C414.238 343.797 410.208 402.426 412.395 420.31C414.582 438.195 438.395 594.549 438.395 594.549L456.357 594.517L461.69 410.263L482.931 596.308L501.507 594.373L512.045 412.388C512.045 412.388 510.392 344.256 496.962 337.424L414.238 343.797Z" fill="#2F2E41"/>
<path d="M442.414 401.914C429.22 401.91 416.218 398.756 404.484 392.714L404.227 392.583L414.155 326.598L413.511 247.957C413.493 245.799 413.905 243.658 414.722 241.661C415.539 239.664 416.746 237.849 418.27 236.324C419.795 234.798 421.608 233.592 423.603 232.775C425.598 231.959 427.735 231.549 429.89 231.569L483.166 232.058C485.525 232.08 487.854 232.588 490.008 233.55C492.163 234.511 494.097 235.907 495.69 237.65C497.282 239.393 498.5 241.445 499.267 243.679C500.034 245.913 500.334 248.282 500.147 250.637L495.162 313.681L511.649 364.852L508.784 368.668C501.058 378.99 491.038 387.368 479.518 393.139C467.998 398.91 455.294 401.914 442.414 401.914Z" fill="#3F3D56"/>
<path d="M408.158 299.414L413.74 242.359L415.535 239.801C416.764 238.05 418.326 236.559 420.132 235.414C421.938 234.269 423.952 233.492 426.058 233.129C428.165 232.765 430.322 232.822 432.406 233.296C434.491 233.77 436.461 234.651 438.205 235.89L439.742 236.982L438.224 294.803L408.158 299.414Z" fill="#3F3D56"/>
<path d="M636.912 578.163C651.345 574.17 657.503 596.121 643.107 600.242C628.676 604.235 622.517 582.284 636.912 578.163Z" fill="#3F3D56"/>
<path d="M556.893 606.415C571.326 602.423 577.484 624.373 563.089 628.494C548.657 632.487 542.498 610.536 556.893 606.415Z" fill="#3F3D56"/>
<path d="M524.508 374.903L524.731 374.84L561.905 475.924L566.806 474.544L529.366 372.735C529.285 371.166 528.67 369.672 527.624 368.501C526.579 367.33 525.164 366.552 523.617 366.297C505.026 363.353 497.49 379.882 497.49 379.882L497.565 379.991L535.57 483.338L540.471 481.958L503.584 381.653C514.814 370.528 524.508 374.903 524.508 374.903Z" fill="#3F3D56"/>
<path d="M567.113 612.102C561.809 612.056 556.658 610.315 552.411 607.132C548.164 603.95 545.042 599.492 543.501 594.409C536.406 571.15 519.666 515.421 517.448 500.297C514.56 480.606 530.833 475.006 531.195 474.886C531.633 474.739 538.176 472.904 547.231 470.366C562.624 466.051 585.885 459.531 586.74 459.146C590.344 457.891 594.169 457.395 597.973 457.689C601.778 457.983 605.481 459.062 608.85 460.856C612.322 462.686 615.387 465.203 617.857 468.256C620.328 471.309 622.153 474.833 623.221 478.614L647.165 563.936C648.643 569.166 648.229 574.751 645.996 579.706C643.763 584.66 639.854 588.666 634.96 591.015C616.485 599.905 589.389 611.765 567.477 612.1C567.356 612.101 567.234 612.102 567.113 612.102Z" fill="#FED600"/>
<path d="M520.555 371.407L508.519 300.985L507.176 277.218L487.716 283.602L504.128 375.815C503.466 377.61 503.309 379.552 503.674 381.43C504.04 383.308 504.914 385.049 506.201 386.463C507.488 387.877 509.138 388.909 510.971 389.447C512.805 389.985 514.75 390.007 516.595 389.512C518.441 389.017 520.114 388.023 521.434 386.64C522.753 385.256 523.667 383.535 524.076 381.666C524.484 379.797 524.372 377.852 523.751 376.042C523.131 374.233 522.025 372.629 520.555 371.407V371.407Z" fill="#FFB7B7"/>
<path d="M511.811 296.568L481.439 294.913L474.303 237.515L474.997 236.912C476.707 235.426 478.694 234.293 480.842 233.578C482.991 232.864 485.259 232.581 487.517 232.746C489.775 232.912 491.978 233.522 494 234.542C496.022 235.563 497.823 236.973 499.299 238.693L500.704 240.329L500.724 240.433L511.811 296.568Z" fill="#3F3D56"/>
<path d="M635.492 576.941L604.449 471.705L531.452 492.367L531.016 490.822L605.538 469.728L605.763 470.489L637.03 576.486L635.492 576.941Z" fill="#3F3D56"/>
<path d="M83.868 339.863L80.5625 267.672L114.421 201.381L115.848 202.113L82.1844 268.024L85.4699 339.79L83.868 339.863Z" fill="#3F3D56"/>
<path d="M670.298 631H23.7021C23.5159 631 23.3373 630.895 23.2056 630.707C23.074 630.52 23 630.265 23 630C23 629.735 23.074 629.48 23.2056 629.293C23.3373 629.105 23.5159 629 23.7021 629H670.298C670.484 629 670.663 629.105 670.794 629.293C670.926 629.48 671 629.735 671 630C671 630.265 670.926 630.52 670.794 630.707C670.663 630.895 670.484 631 670.298 631Z" fill="#535353"/>
<path d="M135.974 319.103L128.918 298.08L127.211 228.003L130.217 218.06C131.3 214.482 133.092 211.159 135.487 208.291C137.882 205.423 140.831 203.068 144.156 201.369C147.481 199.669 151.115 198.66 154.839 198.401C158.563 198.142 162.301 198.638 165.829 199.861C169.357 201.083 172.603 203.007 175.371 205.515C178.139 208.024 180.373 211.067 181.939 214.461C183.504 217.856 184.37 221.532 184.483 225.269C184.597 229.006 183.956 232.728 182.598 236.211L166.484 277.571L167.303 279.163L202.215 278.88L214.616 301.238L135.974 319.103Z" fill="#3F3D56"/>
<path d="M358.379 468.703L358.355 468.708L319.659 476.467L286.372 489.893C285.942 490.067 285.481 490.154 285.018 490.149C284.554 490.145 284.095 490.048 283.668 489.866C283.242 489.684 282.855 489.42 282.53 489.088C282.205 488.756 281.949 488.364 281.775 487.933C281.735 487.831 281.699 487.728 281.667 487.624L257.35 406.068C257.094 405.224 257.165 404.313 257.547 403.518C257.93 402.723 258.596 402.1 259.415 401.774L293.311 388.102L293.336 388.097L332.031 380.338L365.318 366.911C366.188 366.561 367.16 366.57 368.022 366.938C368.884 367.306 369.565 368.001 369.915 368.872C369.956 368.973 369.992 369.076 370.023 369.181L394.34 450.736C394.596 451.581 394.526 452.491 394.143 453.287C393.761 454.082 393.094 454.704 392.275 455.031L358.379 468.703Z" fill="#2F2E41"/>
<path d="M316.856 413.921C307.983 410.785 298.811 408.037 289.598 405.755L289.136 405.641L293.813 421.328L317.644 414.2L316.856 413.921ZM294.179 420.65L289.929 406.399C298.698 408.585 307.424 411.193 315.887 414.157L294.179 420.65ZM363.354 435.127C359.223 432.787 355.033 430.547 350.784 428.406C349.612 427.815 348.437 427.232 347.258 426.659C340.063 423.152 332.757 419.956 325.342 417.07L325.255 417.036L295.213 426.022L303.417 453.536L363.91 435.442L363.354 435.127ZM303.782 452.859L295.889 426.388L325.232 417.611C332.383 420.396 339.452 423.481 346.439 426.867C347.653 427.454 348.861 428.05 350.066 428.655C354.274 430.765 358.428 432.976 362.529 435.287L303.782 452.859ZM363.354 435.127C359.223 432.787 355.033 430.547 350.784 428.406C349.612 427.815 348.437 427.232 347.258 426.659C340.063 423.152 332.757 419.956 325.342 417.07L325.255 417.036L295.213 426.022L303.417 453.536L363.91 435.442L363.354 435.127ZM303.782 452.859L295.889 426.388L325.232 417.611C332.383 420.396 339.452 423.481 346.439 426.867C347.653 427.454 348.861 428.05 350.066 428.655C354.274 430.765 358.428 432.976 362.529 435.287L303.782 452.859ZM316.856 413.921C307.983 410.785 298.811 408.037 289.598 405.755L289.136 405.641L293.813 421.328L317.644 414.2L316.856 413.921ZM294.179 420.65L289.929 406.399C298.698 408.585 307.424 411.193 315.887 414.157L294.179 420.65ZM316.856 413.921C307.983 410.785 298.811 408.037 289.598 405.755L289.136 405.641L293.813 421.328L317.644 414.2L316.856 413.921ZM294.179 420.65L289.929 406.399C298.698 408.585 307.424 411.193 315.887 414.157L294.179 420.65ZM363.354 435.127C359.223 432.787 355.033 430.547 350.784 428.406C349.612 427.815 348.437 427.232 347.258 426.659C340.063 423.152 332.757 419.956 325.342 417.07L325.255 417.036L295.213 426.022L303.417 453.536L363.91 435.442L363.354 435.127ZM303.782 452.859L295.889 426.388L325.232 417.611C332.383 420.396 339.452 423.481 346.439 426.867C347.653 427.454 348.861 428.05 350.066 428.655C354.274 430.765 358.428 432.976 362.529 435.287L303.782 452.859ZM279.041 465.941L279.197 466.462L299.765 460.31L302.02 467.873L281.452 474.025L281.607 474.547L302.696 468.239L300.13 459.633L279.041 465.941ZM308.783 471.531L310.359 476.817L310.865 476.612L309.459 471.897L389.658 447.908L389.502 447.387L308.783 471.531ZM385.692 434.608L385.536 434.086L304.817 458.231L307.383 466.837L388.103 442.692L387.947 442.171L307.748 466.16L305.493 458.597L385.692 434.608ZM325.744 411.209C313.452 406.478 300.824 402.671 287.967 399.819L286.393 394.538L285.886 394.742L287.473 400.064L288.006 400.386C300.813 403.234 313.391 407.033 325.636 411.749L325.722 411.783L374.533 397.183L374.377 396.661L325.744 411.209ZM288.45 422.364L267.882 428.516L268.038 429.038L289.127 422.73L281.329 396.579L280.823 396.783L288.45 422.364ZM375.933 401.877L333.022 414.713L333.721 415.006C340.303 417.78 346.867 420.846 353.414 424.205C354.345 424.682 355.274 425.166 356.203 425.656C360.825 428.087 365.411 430.653 369.961 433.355L370.466 433.481L384.137 429.392L383.981 428.87L370.343 432.949C365.842 430.274 361.298 427.727 356.712 425.309C355.795 424.825 354.877 424.347 353.957 423.874C347.549 420.577 341.106 417.552 334.628 414.8L376.088 402.399L375.933 401.877ZM283.007 479.241L283.163 479.763L303.731 473.611L305.295 478.858L305.802 478.654L304.096 472.933L283.007 479.241ZM269.438 433.732L269.593 434.254L290.161 428.101L298.054 454.572L277.486 460.725L277.642 461.246L298.73 454.938L290.526 427.424L269.438 433.732ZM316.856 413.921C307.983 410.785 298.811 408.037 289.598 405.755L289.136 405.641L293.813 421.328L317.644 414.2L316.856 413.921ZM294.179 420.65L289.929 406.399C298.698 408.585 307.424 411.193 315.887 414.157L294.179 420.65ZM363.354 435.127C359.223 432.787 355.033 430.547 350.784 428.406C349.612 427.815 348.437 427.232 347.258 426.659C340.063 423.152 332.757 419.956 325.342 417.07L325.255 417.036L295.213 426.022L303.417 453.536L363.91 435.442L363.354 435.127ZM303.782 452.859L295.889 426.388L325.232 417.611C332.383 420.396 339.452 423.481 346.439 426.867C347.653 427.454 348.861 428.05 350.066 428.655C354.274 430.765 358.428 432.976 362.529 435.287L303.782 452.859ZM316.856 413.921C307.983 410.785 298.811 408.037 289.598 405.755L289.136 405.641L293.813 421.328L317.644 414.2L316.856 413.921ZM294.179 420.65L289.929 406.399C298.698 408.585 307.424 411.193 315.887 414.157L294.179 420.65ZM363.354 435.127C359.223 432.787 355.033 430.547 350.784 428.406C349.612 427.815 348.437 427.232 347.258 426.659C340.063 423.152 332.757 419.956 325.342 417.07L325.255 417.036L295.213 426.022L303.417 453.536L363.91 435.442L363.354 435.127ZM303.782 452.859L295.889 426.388L325.232 417.611C332.383 420.396 339.452 423.481 346.439 426.867C347.653 427.454 348.861 428.05 350.066 428.655C354.274 430.765 358.428 432.976 362.529 435.287L303.782 452.859Z" fill="white"/>
<path d="M323.765 416.378C325.735 422.983 318.182 441.268 318.182 441.268C318.182 441.268 301.854 430.126 299.884 423.521C298.939 420.349 299.29 416.931 300.86 414.018C302.431 411.106 305.092 408.937 308.259 407.99C311.426 407.043 314.839 407.394 317.747 408.967C320.655 410.54 322.82 413.206 323.765 416.378H323.765Z" fill="#FED600"/>
<path d="M317.128 417.797C317.451 418.878 317.446 420.031 317.114 421.109C316.782 422.188 316.139 423.143 315.265 423.856C314.391 424.568 313.326 425.004 312.204 425.11C311.082 425.216 309.954 424.986 308.963 424.45C307.971 423.913 307.161 423.095 306.634 422.097C306.107 421.1 305.888 419.968 306.003 418.846C306.118 417.723 306.563 416.66 307.282 415.791C308 414.921 308.96 414.285 310.04 413.962C310.757 413.747 311.509 413.676 312.253 413.753C312.997 413.829 313.719 414.052 314.378 414.408C315.036 414.764 315.618 415.247 316.09 415.828C316.562 416.41 316.915 417.078 317.128 417.797Z" fill="white"/>
<path d="M319.794 450.041C321.649 450.041 323.153 448.534 323.153 446.676C323.153 444.818 321.649 443.312 319.794 443.312C317.939 443.312 316.435 444.818 316.435 446.676C316.435 448.534 317.939 450.041 319.794 450.041Z" fill="#FED600"/>
<path d="M356.449 402.439L333.103 409.422C333.074 409.431 333.044 409.437 333.014 409.441L338.343 386.983C338.375 386.843 338.443 386.715 338.541 386.61C338.639 386.506 338.762 386.429 338.899 386.388C339.036 386.347 339.181 386.344 339.32 386.377C339.459 386.411 339.586 386.481 339.689 386.58L350.932 397.218L351.471 397.727L356.449 402.439Z" fill="white"/>
<path opacity="0.2" d="M356.448 402.439L348.478 404.823L350.694 397.96L350.852 397.466L350.932 397.218L351.47 397.727L356.448 402.439Z" fill="black"/>
<path d="M369.447 398.55L349.255 404.59L351.471 397.727L351.63 397.233L354.517 388.289C354.573 388.149 354.659 388.022 354.767 387.917C354.875 387.812 355.005 387.731 355.147 387.679C355.289 387.627 355.44 387.606 355.59 387.616C355.741 387.627 355.888 387.669 356.021 387.74C356.056 387.761 356.09 387.784 356.122 387.809L369.447 398.55Z" fill="white"/>
</g>
<defs>
<clipPath id="clip0_215:65">
<rect width="740" height="512" fill="white" transform="translate(-33 119)"/>
</clipPath>
</defs>
</svg>
